<?xml version="1.0" encoding="UTF-8"?>
<svg xmlns="http://www.w3.org/2000/svg" xmlns:xlink="http://www.w3.org/1999/xlink" width="50pt" height="50pt" viewBox="0 0 50 50" version="1.1">
<g id="surface1">
<path style=" stroke:none;fill-rule:nonzero;fill:rgb(0%,0%,0%);fill-opacity:1;" d="M 21.730469 11.167969 C 21.636719 11.191406 21.390625 11.292969 21.179688 11.398438 C 20.394531 11.78125 19.722656 12.601562 19.238281 13.773438 C 18.734375 14.992188 18.394531 16.917969 18.273438 19.261719 C 18.242188 19.820312 18.238281 22.980469 18.265625 23.460938 C 18.277344 23.65625 18.300781 24.054688 18.3125 24.351562 C 18.328125 24.652344 18.34375 24.976562 18.355469 25.082031 C 18.363281 25.1875 18.382812 25.464844 18.394531 25.707031 C 18.4375 26.417969 18.589844 26.8125 18.960938 27.222656 C 19.074219 27.347656 19.238281 27.496094 19.320312 27.542969 L 19.46875 27.636719 L 19.441406 28.746094 C 19.425781 29.351562 19.40625 29.929688 19.398438 30.023438 C 19.390625 30.113281 19.371094 30.582031 19.359375 31.0625 C 19.339844 31.539062 19.320312 32.058594 19.3125 32.210938 C 19.304688 32.359375 19.28125 32.730469 19.273438 33.042969 C 19.253906 33.351562 19.238281 33.65625 19.226562 33.726562 C 19.222656 33.792969 19.199219 34.164062 19.1875 34.542969 C 19.171875 34.917969 19.148438 35.257812 19.144531 35.296875 C 19.136719 35.335938 19.121094 35.613281 19.105469 35.921875 C 19.085938 36.226562 19.066406 36.507812 19.0625 36.546875 C 19.054688 36.585938 19.03125 36.910156 19.019531 37.273438 C 18.988281 38.039062 19.027344 38.273438 19.257812 38.65625 C 20.054688 39.976562 22.113281 39.941406 22.847656 38.589844 C 23.042969 38.226562 23.089844 37.964844 23.058594 37.335938 C 23.042969 37.027344 23.023438 36.742188 23.023438 36.710938 C 23.011719 36.675781 22.996094 36.429688 22.984375 36.167969 C 22.964844 35.902344 22.945312 35.582031 22.9375 35.460938 C 22.929688 35.335938 22.90625 35.011719 22.894531 34.75 C 22.882812 34.488281 22.863281 34.195312 22.855469 34.105469 C 22.847656 34.011719 22.828125 33.648438 22.8125 33.292969 C 22.800781 32.9375 22.777344 32.550781 22.769531 32.4375 C 22.761719 32.320312 22.746094 31.957031 22.730469 31.625 C 22.71875 31.292969 22.699219 30.835938 22.6875 30.601562 C 22.675781 30.375 22.660156 29.738281 22.648438 29.1875 C 22.617188 27.898438 22.582031 26.945312 22.566406 26.84375 C 22.558594 26.804688 22.535156 26.5 22.523438 26.167969 C 22.503906 25.835938 22.484375 25.53125 22.476562 25.5 C 22.46875 25.464844 22.457031 25.207031 22.441406 24.917969 C 22.425781 24.628906 22.40625 24.292969 22.398438 24.164062 C 22.386719 24.039062 22.367188 23.65625 22.347656 23.3125 C 22.339844 22.964844 22.316406 22.613281 22.308594 22.523438 C 22.28125 22.261719 22.230469 19.417969 22.230469 18.414062 C 22.230469 17.441406 22.28125 15.011719 22.308594 14.8125 C 22.316406 14.742188 22.339844 14.5 22.347656 14.273438 C 22.398438 13.480469 22.445312 13.011719 22.550781 12.144531 C 22.609375 11.664062 22.601562 11.574219 22.523438 11.414062 C 22.386719 11.164062 22.128906 11.078125 21.730469 11.167969 Z M 21.332031 12.777344 C 21.332031 12.847656 21.3125 13.074219 21.292969 13.289062 C 21.273438 13.507812 21.246094 13.84375 21.226562 14.039062 C 21.214844 14.238281 21.195312 14.507812 21.1875 14.644531 C 21.078125 16.164062 21.078125 21.132812 21.1875 22.648438 C 21.195312 22.78125 21.214844 23.1875 21.226562 23.539062 C 21.246094 23.898438 21.261719 24.242188 21.273438 24.3125 C 21.28125 24.378906 21.300781 24.710938 21.3125 25.042969 C 21.332031 25.375 21.34375 25.699219 21.351562 25.773438 C 21.363281 25.835938 21.382812 26.109375 21.398438 26.371094 C 21.410156 26.632812 21.429688 26.875 21.4375 26.910156 C 21.441406 26.949219 21.460938 27.464844 21.476562 28.0625 C 21.488281 28.65625 21.507812 29.363281 21.519531 29.625 C 21.539062 30.132812 21.570312 30.863281 21.605469 31.792969 C 21.628906 32.367188 21.65625 32.898438 21.6875 33.460938 C 21.695312 33.628906 21.714844 33.96875 21.730469 34.210938 C 21.761719 34.886719 21.792969 35.378906 21.8125 35.582031 C 21.820312 35.6875 21.839844 36.003906 21.851562 36.292969 C 21.867188 36.578125 21.886719 36.878906 21.898438 36.957031 C 21.984375 37.75 21.957031 37.964844 21.738281 38.207031 C 21.605469 38.34375 21.257812 38.5 21.058594 38.5 C 20.679688 38.5 20.269531 38.234375 20.160156 37.925781 C 20.121094 37.800781 20.128906 37.28125 20.1875 36.664062 C 20.210938 36.417969 20.242188 35.914062 20.269531 35.375 C 20.28125 35.132812 20.304688 34.816406 20.3125 34.664062 C 20.347656 34.1875 20.371094 33.699219 20.394531 33.148438 C 20.40625 32.847656 20.429688 32.46875 20.4375 32.3125 C 20.480469 31.679688 20.53125 30.289062 20.5625 29 C 20.574219 28.507812 20.59375 27.90625 20.609375 27.660156 C 20.632812 27.085938 20.570312 26.933594 20.242188 26.769531 C 19.925781 26.605469 19.796875 26.5 19.6875 26.3125 C 19.554688 26.078125 19.527344 25.894531 19.476562 24.976562 C 19.46875 24.703125 19.445312 24.339844 19.4375 24.164062 C 19.425781 23.996094 19.410156 23.667969 19.390625 23.4375 C 19.363281 22.925781 19.363281 19.722656 19.390625 19.4375 C 19.40625 19.320312 19.417969 19.039062 19.4375 18.8125 C 19.535156 17.09375 19.820312 15.472656 20.210938 14.410156 C 20.347656 14.039062 20.617188 13.480469 20.761719 13.273438 C 20.90625 13.0625 21.253906 12.664062 21.292969 12.664062 C 21.316406 12.664062 21.332031 12.71875 21.332031 12.777344 Z M 21.332031 12.777344 "/>
<path style=" stroke:none;fill-rule:nonzero;fill:rgb(0%,0%,0%);fill-opacity:1;" d="M 25.429688 11.207031 C 25.152344 11.378906 25.167969 11.019531 25.167969 16.554688 L 25.167969 21.570312 L 25.3125 21.867188 C 25.570312 22.378906 26.195312 22.847656 26.746094 22.9375 L 26.929688 22.964844 L 26.90625 25.683594 C 26.890625 27.175781 26.871094 28.5 26.859375 28.625 C 26.851562 28.75 26.832031 29.3125 26.8125 29.875 C 26.800781 30.4375 26.78125 30.988281 26.773438 31.105469 C 26.761719 31.214844 26.746094 31.574219 26.730469 31.898438 C 26.714844 32.21875 26.695312 32.648438 26.6875 32.855469 C 26.675781 33.058594 26.65625 33.453125 26.644531 33.726562 C 26.613281 34.445312 26.585938 34.992188 26.5625 35.210938 C 26.554688 35.3125 26.53125 35.667969 26.519531 36 C 26.503906 36.332031 26.488281 36.648438 26.480469 36.710938 C 26.417969 37.15625 26.417969 37.75 26.476562 38.019531 C 26.789062 39.359375 28.199219 40.011719 29.433594 39.386719 C 29.871094 39.164062 30.277344 38.664062 30.441406 38.136719 C 30.5 37.949219 30.53125 37.121094 30.484375 36.898438 C 30.472656 36.851562 30.453125 36.578125 30.441406 36.292969 C 30.425781 36.003906 30.40625 35.667969 30.394531 35.542969 C 30.386719 35.414062 30.367188 35.066406 30.355469 34.769531 C 30.335938 34.46875 30.320312 34.183594 30.3125 34.125 C 30.304688 34.066406 30.289062 33.683594 30.269531 33.273438 C 30.257812 32.855469 30.238281 32.445312 30.230469 32.355469 C 30.21875 32.261719 30.199219 31.898438 30.1875 31.539062 C 30.175781 31.1875 30.152344 30.726562 30.148438 30.523438 C 30.136719 30.3125 30.117188 29.710938 30.101562 29.1875 C 30.085938 28.65625 30.066406 28.125 30.0625 28 C 30.054688 27.875 30.035156 26.691406 30.015625 25.375 L 29.988281 22.980469 L 30.238281 22.925781 C 30.808594 22.808594 31.386719 22.367188 31.644531 21.851562 L 31.773438 21.605469 L 31.78125 16.644531 C 31.792969 13.351562 31.78125 11.636719 31.753906 11.539062 C 31.621094 11.078125 30.996094 10.980469 30.726562 11.386719 C 30.667969 11.476562 30.667969 11.96875 30.667969 16.007812 C 30.667969 19.566406 30.65625 20.542969 30.613281 20.570312 C 30.5625 20.613281 30.054688 20.792969 29.992188 20.792969 C 29.976562 20.792969 29.957031 18.707031 29.949219 16.15625 C 29.9375 11.765625 29.933594 11.511719 29.863281 11.402344 C 29.601562 11.003906 29.03125 11.050781 28.851562 11.488281 C 28.800781 11.597656 28.792969 12.433594 28.792969 16.3125 L 28.792969 21.003906 L 28.472656 20.992188 L 28.148438 20.980469 L 28.125 16.226562 C 28.109375 12.414062 28.089844 11.460938 28.050781 11.382812 C 27.847656 11.03125 27.269531 11.054688 27.074219 11.414062 C 27.003906 11.554688 27 11.78125 27 16.175781 C 27 18.714844 26.984375 20.792969 26.96875 20.792969 C 26.929688 20.792969 26.585938 20.683594 26.410156 20.617188 L 26.292969 20.574219 L 26.292969 16.046875 C 26.292969 11.632812 26.285156 11.519531 26.207031 11.386719 C 26.054688 11.128906 25.691406 11.046875 25.429688 11.207031 Z M 28.460938 23.335938 C 28.597656 23.335938 28.65625 23.308594 28.753906 23.210938 L 28.875 23.089844 L 28.882812 24.429688 C 28.898438 26.011719 28.898438 26.011719 28.933594 27.914062 C 28.949219 28.726562 28.96875 29.507812 28.980469 29.644531 C 28.988281 29.78125 29.007812 30.195312 29.019531 30.5625 C 29.058594 31.683594 29.09375 32.398438 29.144531 33.414062 C 29.15625 33.613281 29.175781 33.976562 29.1875 34.230469 C 29.230469 35.0625 29.253906 35.472656 29.273438 35.648438 C 29.304688 35.980469 29.351562 37.074219 29.351562 37.484375 C 29.351562 37.871094 29.34375 37.914062 29.242188 38.074219 C 29.105469 38.277344 28.820312 38.460938 28.585938 38.488281 C 28.089844 38.554688 27.59375 38.148438 27.570312 37.652344 C 27.5625 37.46875 27.617188 36.335938 27.648438 36.085938 C 27.660156 35.929688 27.691406 35.460938 27.730469 34.6875 C 27.753906 34.164062 27.78125 33.589844 27.8125 33.101562 C 27.824219 32.921875 27.84375 32.507812 27.855469 32.1875 C 27.875 31.636719 27.886719 31.367188 27.9375 30.355469 C 27.945312 30.125 27.964844 29.449219 27.980469 28.851562 C 27.996094 28.257812 28.011719 27.601562 28.023438 27.398438 C 28.03125 27.1875 28.042969 26.132812 28.042969 25.050781 L 28.050781 23.082031 L 28.167969 23.207031 C 28.257812 23.308594 28.316406 23.335938 28.460938 23.335938 Z M 28.460938 23.335938 "/>
</g>
</svg>
